<svg width="98" height="54" viewBox="0 0 98 54" fill="none" xmlns="http://www.w3.org/2000/svg">
<path d="M34.7181 25.9492L27.5431 26.141C27.4685 25.6296 27.2661 25.1768 26.9358 24.7827C26.6056 24.3778 26.1741 24.0636 25.6414 23.8398C25.1194 23.6055 24.5122 23.4883 23.8197 23.4883C22.9142 23.4883 22.1418 23.6694 21.5026 24.0316C20.874 24.3938 20.5651 24.8839 20.5757 25.5018C20.5651 25.9812 20.7568 26.3967 21.151 26.7482C21.5559 27.0998 22.275 27.3821 23.3083 27.5952L28.0385 28.4901C30.4887 28.9588 32.3105 29.7365 33.5037 30.8232C34.7075 31.9098 35.3147 33.348 35.3254 35.1378C35.3147 36.821 34.814 38.2859 33.8233 39.5323C32.8431 40.7788 31.5008 41.7482 29.7963 42.4407C28.0917 43.1225 26.1421 43.4634 23.9475 43.4634C20.4426 43.4634 17.678 42.7443 15.6539 41.3061C13.6404 39.8572 12.4898 37.9183 12.2022 35.4893L19.9206 35.2976C20.091 36.1925 20.5331 36.8743 21.2469 37.343C21.9607 37.8118 22.8715 38.0462 23.9795 38.0462C24.9809 38.0462 25.7959 37.8597 26.4245 37.4869C27.053 37.114 27.3726 36.6186 27.3833 36.0007C27.3726 35.4467 27.1276 35.0046 26.6482 34.6744C26.1688 34.3335 25.4177 34.0671 24.395 33.8754L20.1123 33.0604C17.6514 32.6129 15.819 31.7873 14.6152 30.5835C13.4113 29.369 12.8147 27.8242 12.8254 25.9492C12.8147 24.3086 13.2515 22.9077 14.1358 21.7464C15.02 20.5746 16.2771 19.6797 17.9071 19.0618C19.537 18.4439 21.46 18.1349 23.6759 18.1349C26.9997 18.1349 29.6205 18.8327 31.5381 20.2283C33.4557 21.6133 34.5157 23.5202 34.7181 25.9492ZM60.6019 25.9492L53.4269 26.141C53.3523 25.6296 53.1499 25.1768 52.8196 24.7827C52.4894 24.3778 52.0579 24.0636 51.5252 23.8398C51.0032 23.6055 50.396 23.4883 49.7035 23.4883C48.798 23.4883 48.0256 23.6694 47.3864 24.0316C46.7578 24.3938 46.4489 24.8839 46.4595 25.5018C46.4489 25.9812 46.6406 26.3967 47.0348 26.7482C47.4396 27.0998 48.1587 27.3821 49.1921 27.5952L53.9222 28.4901C56.3725 28.9588 58.1943 29.7365 59.3874 30.8232C60.5913 31.9098 61.1985 33.348 61.2092 35.1378C61.1985 36.821 60.6978 38.2859 59.707 39.5323C58.7269 40.7788 57.3846 41.7482 55.6801 42.4407C53.9755 43.1225 52.0259 43.4634 49.8313 43.4634C46.3264 43.4634 43.5618 42.7443 41.5377 41.3061C39.5242 39.8572 38.3736 37.9183 38.0859 35.4893L45.8043 35.2976C45.9748 36.1925 46.4169 36.8743 47.1307 37.343C47.8445 37.8118 48.7553 38.0462 49.8633 38.0462C50.8647 38.0462 51.6797 37.8597 52.3083 37.4869C52.9368 37.114 53.2564 36.6186 53.2671 36.0007C53.2564 35.4467 53.0114 35.0046 52.532 34.6744C52.0526 34.3335 51.3015 34.0671 50.2788 33.8754L45.9961 33.0604C43.5352 32.6129 41.7028 31.7873 40.4989 30.5835C39.2951 29.369 38.6985 27.8242 38.7092 25.9492C38.6985 24.3086 39.1353 22.9077 40.0195 21.7464C40.9038 20.5746 42.1609 19.6797 43.7908 19.0618C45.4208 18.4439 47.3438 18.1349 49.5597 18.1349C52.8835 18.1349 55.5043 18.8327 57.4219 20.2283C59.3395 21.6133 60.3995 23.5202 60.6019 25.9492ZM71.9758 43.4155C70.4097 43.4155 69.0195 43.1545 67.805 42.6325C66.6011 42.0998 65.6476 41.3008 64.9445 40.2354C64.2521 39.1594 63.9058 37.8118 63.9058 36.1925C63.9058 34.8288 64.1455 33.6783 64.6249 32.7408C65.1043 31.8033 65.7648 31.0415 66.6065 30.4556C67.4481 29.8697 68.4175 29.4276 69.5148 29.1293C70.6121 28.8203 71.784 28.6126 73.0305 28.506C74.4261 28.3782 75.55 28.245 76.4023 28.1065C77.2545 27.9574 77.8724 27.7496 78.256 27.4833C78.6501 27.2063 78.8472 26.8175 78.8472 26.3168V26.2369C78.8472 25.4165 78.5649 24.7827 78.0003 24.3352C77.4356 23.8878 76.6739 23.6641 75.7151 23.6641C74.6817 23.6641 73.8508 23.8878 73.2222 24.3352C72.5937 24.7827 72.1942 25.4006 72.0237 26.1889L64.8167 25.9332C65.0298 24.4418 65.5784 23.1101 66.4626 21.9382C67.3575 20.7557 68.5827 19.8288 70.1381 19.1577C71.7041 18.4759 73.5844 18.1349 75.779 18.1349C77.3451 18.1349 78.7886 18.3214 80.1097 18.6942C81.4307 19.0565 82.5812 19.5891 83.5614 20.2923C84.5415 20.9847 85.2979 21.837 85.8305 22.8491C86.3739 23.8612 86.6455 25.017 86.6455 26.3168V43H79.2947V39.5803H79.1029C78.6661 40.4112 78.1068 41.1143 77.425 41.6896C76.7538 42.2649 75.9601 42.6964 75.044 42.984C74.1384 43.2717 73.1157 43.4155 71.9758 43.4155ZM74.3888 38.3018C75.2304 38.3018 75.9868 38.1314 76.6579 37.7905C77.3398 37.4496 77.8831 36.9808 78.2879 36.3842C78.6927 35.777 78.8952 35.0739 78.8952 34.2749V31.9418C78.6714 32.0589 78.3998 32.1655 78.0802 32.2614C77.7712 32.3572 77.4303 32.4478 77.0575 32.533C76.6846 32.6183 76.3011 32.6928 75.9069 32.7567C75.5127 32.8207 75.1345 32.8793 74.7723 32.9325C74.0372 33.0497 73.4087 33.2308 72.8866 33.4759C72.3753 33.7209 71.9811 34.0405 71.7041 34.4347C71.4378 34.8182 71.3046 35.2763 71.3046 35.8089C71.3046 36.6186 71.5923 37.2365 72.1675 37.6626C72.7535 38.0888 73.4939 38.3018 74.3888 38.3018Z" fill="white"/>
<rect x="2.81189" y="28" width="6" height="15" fill="white"/>
<rect y="21.1494" width="8" height="8" transform="rotate(-50 0 21.1494)" fill="#A8E300"/>
<rect x="86" y="39.1284" width="8" height="8" transform="rotate(-50 86 39.1284)" fill="#A8E300"/>
</svg>
